<svg xmlns="http://www.w3.org/2000/svg" viewBox="0 0 200 200">
  <!-- Outer circle with dashed border -->
  <circle cx="100" cy="100" r="95" fill="#F5E6D3" stroke="#8B4513" stroke-width="2" stroke-dasharray="5,3"/>
  
  <!-- Top text "ENAK & HALAL" -->
  <path id="top-curve" d="M 30 100 A 70 70 0 0 1 170 100" fill="none"/>
  <text font-family="serif" font-size="12" font-weight="bold" fill="#2C1810">
    <textPath href="#top-curve" startOffset="50%" text-anchor="middle">
      ENAK &amp; HALAL
    </textPath>
  </text>
  
  <!-- Chef character -->
  <!-- Chef hat -->
  <ellipse cx="100" cy="65" rx="25" ry="15" fill="white" stroke="#333" stroke-width="2"/>
  <path d="M 80 65 Q 85 50 95 55 Q 100 45 105 55 Q 115 50 120 65" fill="white" stroke="#333" stroke-width="2"/>
  
  <!-- Face -->
  <circle cx="100" cy="85" r="18" fill="#FDBCB4"/>
  
  <!-- Hijab -->
  <path d="M 82 75 Q 100 70 118 75 Q 118 95 100 100 Q 82 95 82 75" fill="#D4A574" stroke="#B8956A" stroke-width="1"/>
  
  <!-- Eyes -->
  <circle cx="94" cy="82" r="2" fill="#333"/>
  <circle cx="106" cy="82" r="2" fill="#333"/>
  
  <!-- Smile -->
  <path d="M 92 90 Q 100 95 108 90" stroke="#333" stroke-width="1.5" fill="none"/>
  
  <!-- Blush -->
  <circle cx="88" cy="88" r="3" fill="#FFB6C1" opacity="0.6"/>
  <circle cx="112" cy="88" r="3" fill="#FFB6C1" opacity="0.6"/>
  
  <!-- Body/Apron -->
  <rect x="85" y="100" width="30" height="25" fill="#8B0000" rx="3"/>
  <rect x="88" y="105" width="24" height="20" fill="white" rx="2"/>
  
  <!-- Arms -->
  <ellipse cx="78" cy="110" rx="8" ry="15" fill="#FDBCB4"/>
  <ellipse cx="122" cy="110" rx="8" ry="15" fill="#FDBCB4"/>
  
  <!-- Cooking utensils -->
  <!-- Whisk -->
  <line x1="70" y1="115" x2="75" y2="105" stroke="#333" stroke-width="2"/>
  <circle cx="72" cy="102" r="1" fill="#333"/>
  <circle cx="74" cy="100" r="1" fill="#333"/>
  <circle cx="76" cy="102" r="1" fill="#333"/>
  
  <!-- Spoon -->
  <line x1="130" y1="115" x2="125" y2="105" stroke="#333" stroke-width="2"/>
  <ellipse cx="124" cy="102" rx="2" ry="4" fill="#333"/>
  
  <!-- Hearts -->
  <path d="M 140 70 Q 142 68 144 70 Q 146 68 148 70 Q 148 74 144 78 Q 140 74 140 70" fill="#FF69B4"/>
  <path d="M 52 85 Q 54 83 56 85 Q 58 83 60 85 Q 60 89 56 93 Q 52 89 52 85" fill="#FF69B4"/>
  <path d="M 145 120 Q 147 118 149 120 Q 151 118 153 120 Q 153 124 149 128 Q 145 124 145 120" fill="#FF69B4"/>
  
  <!-- Banner -->
  <path d="M 60 140 Q 100 135 140 140 Q 140 155 100 150 Q 60 155 60 140" fill="#D4A574" stroke="#B8956A" stroke-width="1"/>
  
  <!-- Banner text "Mae Snack" -->
  <text x="100" y="148" font-family="serif" font-size="16" font-weight="bold" fill="#2C1810" text-anchor="middle">
    Mae Snack
  </text>
  
  <!-- Phone number -->
  <text x="100" y="170" font-family="sans-serif" font-size="12" font-weight="bold" fill="#2C1810" text-anchor="middle">
    087878177527
  </text>
  
  <!-- Banner ribbons -->
  <path d="M 60 140 L 50 145 L 60 155" fill="#B8956A"/>
  <path d="M 140 140 L 150 145 L 140 155" fill="#B8956A"/>
</svg>